<?xml version="1.0" encoding="UTF-8"?>
<!DOCTYPE svg PUBLIC "-//W3C//DTD SVG 1.1//EN" "http://www.w3.org/Graphics/SVG/1.1/DTD/svg11.dtd">
<svg xmlns="http://www.w3.org/2000/svg" version="1.1" width="1000px" height="500px" style="shape-rendering:geometricPrecision; text-rendering:geometricPrecision; image-rendering:optimizeQuality; fill-rule:evenodd; clip-rule:evenodd" xmlns:xlink="http://www.w3.org/1999/xlink">
<g><path style="opacity:1" fill="#000000" d="M -0.5,-0.5 C 332.833,-0.5 666.167,-0.5 999.5,-0.5C 999.5,166.167 999.5,332.833 999.5,499.5C 666.167,499.5 332.833,499.5 -0.5,499.5C -0.5,444.167 -0.5,388.833 -0.5,333.5C 11.8333,333.5 24.1667,333.5 36.5,333.5C 36.8324,275.331 36.499,217.331 35.5,159.5C 23.5,159.5 11.5,159.5 -0.5,159.5C -0.5,106.167 -0.5,52.8333 -0.5,-0.5 Z"/></g>
<g><path style="opacity:1" fill="#c1c0be" d="M -0.5,159.5 C 11.5,159.5 23.5,159.5 35.5,159.5C 35.5,217.167 35.5,274.833 35.5,332.5C 23.5,332.5 11.5,332.5 -0.5,332.5C -0.5,274.833 -0.5,217.167 -0.5,159.5 Z"/></g>
<g><path style="opacity:1" fill="#585857" d="M 59.5,159.5 C 59.5,198.833 59.5,238.167 59.5,277.5C 71.5,277.5 83.5,277.5 95.5,277.5C 83.3446,278.495 71.0113,278.829 58.5,278.5C 58.1681,238.663 58.5014,198.996 59.5,159.5 Z"/></g>
<g><path style="opacity:1" fill="#c1c0be" d="M 59.5,159.5 C 71.5,159.5 83.5,159.5 95.5,159.5C 95.5,198.833 95.5,238.167 95.5,277.5C 83.5,277.5 71.5,277.5 59.5,277.5C 59.5,238.167 59.5,198.833 59.5,159.5 Z"/></g>
<g><path style="opacity:1" fill="#c1bfbe" d="M 154.5,159.5 C 154.5,217.167 154.5,274.833 154.5,332.5C 142.5,332.5 130.5,332.5 118.5,332.5C 118.5,274.833 118.5,217.167 118.5,159.5C 130.5,159.5 142.5,159.5 154.5,159.5 Z"/></g>
<g><path style="opacity:1" fill="#c1c0be" d="M 178.5,159.5 C 190.5,159.5 202.5,159.5 214.5,159.5C 214.5,171.5 214.5,183.5 214.5,195.5C 202.5,195.5 190.5,195.5 178.5,195.5C 178.5,183.5 178.5,171.5 178.5,159.5 Z"/></g>
<g><path style="opacity:1" fill="#c1bfbe" d="M 328.5,159.5 C 328.5,171.5 328.5,183.5 328.5,195.5C 298.167,195.5 267.833,195.5 237.5,195.5C 237.5,183.5 237.5,171.5 237.5,159.5C 267.833,159.5 298.167,159.5 328.5,159.5 Z"/></g>
<g><path style="opacity:1" fill="#cccbc9" d="M 350.5,159.5 C 351.5,159.5 352.5,159.5 353.5,159.5C 353.5,219.5 353.5,279.5 353.5,339.5C 352.5,339.5 351.5,339.5 350.5,339.5C 350.5,279.5 350.5,219.5 350.5,159.5 Z"/></g>
<g><path style="opacity:1" fill="#c9c7c6" d="M 372.5,166.5 C 384.5,166.5 396.5,166.5 408.5,166.5C 408.5,168.5 408.5,170.5 408.5,172.5C 403.833,172.5 399.167,172.5 394.5,172.5C 394.5,187.5 394.5,202.5 394.5,217.5C 391.833,217.5 389.167,217.5 386.5,217.5C 386.5,202.5 386.5,187.5 386.5,172.5C 381.833,172.5 377.167,172.5 372.5,172.5C 372.5,170.5 372.5,168.5 372.5,166.5 Z"/></g>
<g><path style="opacity:1" fill="#c6c4c3" d="M 425.5,187.5 C 433.65,188.493 441.983,188.826 450.5,188.5C 450.5,181.167 450.5,173.833 450.5,166.5C 453.167,166.5 455.833,166.5 458.5,166.5C 458.5,183.5 458.5,200.5 458.5,217.5C 455.833,217.5 453.167,217.5 450.5,217.5C 450.5,210.167 450.5,202.833 450.5,195.5C 442.167,195.5 433.833,195.5 425.5,195.5C 425.5,202.833 425.5,210.167 425.5,217.5C 422.833,217.5 420.167,217.5 417.5,217.5C 417.5,200.5 417.5,183.5 417.5,166.5C 420.167,166.5 422.833,166.5 425.5,166.5C 425.5,173.5 425.5,180.5 425.5,187.5 Z"/></g>
<g><path style="opacity:1" fill="#c7c5c4" d="M 472.5,166.5 C 482.5,166.5 492.5,166.5 502.5,166.5C 502.5,168.5 502.5,170.5 502.5,172.5C 495.167,172.5 487.833,172.5 480.5,172.5C 480.5,177.5 480.5,182.5 480.5,187.5C 486.5,187.5 492.5,187.5 498.5,187.5C 498.5,189.833 498.5,192.167 498.5,194.5C 492.5,194.5 486.5,194.5 480.5,194.5C 480.5,199.833 480.5,205.167 480.5,210.5C 487.833,210.5 495.167,210.5 502.5,210.5C 502.5,212.833 502.5,215.167 502.5,217.5C 492.5,217.5 482.5,217.5 472.5,217.5C 472.5,200.5 472.5,183.5 472.5,166.5 Z"/></g>
<g><path style="opacity:1" fill="#c6c4c3" d="M 524.5,166.5 C 534.833,166.5 545.167,166.5 555.5,166.5C 555.5,168.5 555.5,170.5 555.5,172.5C 547.833,172.5 540.167,172.5 532.5,172.5C 532.5,177.5 532.5,182.5 532.5,187.5C 538.5,187.5 544.5,187.5 550.5,187.5C 550.5,189.833 550.5,192.167 550.5,194.5C 544.5,194.5 538.5,194.5 532.5,194.5C 532.5,199.833 532.5,205.167 532.5,210.5C 539.833,210.5 547.167,210.5 554.5,210.5C 554.5,212.833 554.5,215.167 554.5,217.5C 544.5,217.5 534.5,217.5 524.5,217.5C 524.5,200.5 524.5,183.5 524.5,166.5 Z"/></g>
<g><path style="opacity:1" fill="#c5c3c2" d="M 588.5,166.5 C 596.543,167.605 602.043,171.938 605,179.5C 609.368,210.624 595.868,223.291 564.5,217.5C 564.5,205.833 564.5,194.167 564.5,182.5C 564.5,177.167 564.5,171.833 564.5,166.5C 572.5,166.5 580.5,166.5 588.5,166.5 Z"/></g>
<g><path style="opacity:1" fill="#c7c5c4" d="M 645.5,202.5 C 646.495,190.678 646.828,178.678 646.5,166.5C 648.833,166.5 651.167,166.5 653.5,166.5C 653.5,178.167 653.5,189.833 653.5,201.5C 651.792,212.868 645.125,218.535 633.5,218.5C 623.697,218.52 617.53,213.853 615,204.5C 614.5,191.838 614.333,179.171 614.5,166.5C 617.167,166.5 619.833,166.5 622.5,166.5C 622.333,178.505 622.5,190.505 623,202.5C 623.504,206.02 625.337,208.52 628.5,210C 632.167,210.667 635.833,210.667 639.5,210C 643.046,208.744 645.046,206.244 645.5,202.5 Z"/></g>
<g><path style="opacity:1" fill="#c5c3c2" d="M 679.5,165.5 C 685.678,165.107 691.678,165.94 697.5,168C 698.428,168.388 699.095,169.055 699.5,170C 699.022,172.226 698.355,174.392 697.5,176.5C 677.807,168.338 668.973,175.004 671,196.5C 675.36,212.176 684.36,215.509 698,206.5C 698.667,209.167 698.667,211.833 698,214.5C 686.638,220.798 676.305,219.465 667,210.5C 662.23,200.584 661.23,190.251 664,179.5C 667.049,172.407 672.215,167.74 679.5,165.5 Z"/></g>
<g><path style="opacity:1" fill="#c6c4c3" d="M 719.5,166.5 C 723.167,166.5 726.833,166.5 730.5,166.5C 735.627,183.215 740.96,199.882 746.5,216.5C 743.572,217.484 740.572,217.817 737.5,217.5C 737.196,213.145 736.196,208.979 734.5,205C 727.476,204.169 720.476,204.336 713.5,205.5C 711.871,209.351 710.871,213.351 710.5,217.5C 707.833,217.5 705.167,217.5 702.5,217.5C 707.963,200.443 713.63,183.443 719.5,166.5 Z"/></g>
<g><path style="opacity:1" fill="#cccac9" d="M 749.5,166.5 C 761.5,166.5 773.5,166.5 785.5,166.5C 785.5,168.5 785.5,170.5 785.5,172.5C 780.833,172.5 776.167,172.5 771.5,172.5C 771.5,187.5 771.5,202.5 771.5,217.5C 769.167,217.5 766.833,217.5 764.5,217.5C 764.5,202.5 764.5,187.5 764.5,172.5C 759.5,172.5 754.5,172.5 749.5,172.5C 749.5,170.5 749.5,168.5 749.5,166.5 Z"/></g>
<g><path style="opacity:1" fill="#c8c6c5" d="M 794.5,166.5 C 797.167,166.5 799.833,166.5 802.5,166.5C 802.5,183.5 802.5,200.5 802.5,217.5C 799.833,217.5 797.167,217.5 794.5,217.5C 794.5,200.5 794.5,183.5 794.5,166.5 Z"/></g>
<g><path style="opacity:1" fill="#c3c1c0" d="M 829.5,165.5 C 851.605,164.629 861.105,175.296 858,197.5C 853.143,215.847 841.643,222.014 823.5,216C 815.215,209.848 811.549,201.514 812.5,191C 812.324,178.5 817.99,170 829.5,165.5 Z"/></g>
<g><path style="opacity:1" fill="#c9c7c6" d="M 905.5,166.5 C 906.5,166.5 907.5,166.5 908.5,166.5C 908.5,183.5 908.5,200.5 908.5,217.5C 905.428,217.817 902.428,217.484 899.5,216.5C 891.667,204.167 883.833,191.833 876,179.5C 875.5,192.162 875.333,204.829 875.5,217.5C 873.167,217.5 870.833,217.5 868.5,217.5C 868.5,200.5 868.5,183.5 868.5,166.5C 871.572,166.183 874.572,166.516 877.5,167.5C 885.333,179.833 893.167,192.167 901,204.5C 901.5,191.838 901.667,179.171 901.5,166.5C 902.833,166.5 904.167,166.5 905.5,166.5 Z"/></g>
<g><path style="opacity:1" fill="#c6c4c3" d="M 934.5,166.5 C 938.167,166.5 941.833,166.5 945.5,166.5C 950.627,183.215 955.96,199.882 961.5,216.5C 958.572,217.484 955.572,217.817 952.5,217.5C 952.196,213.145 951.196,208.979 949.5,205C 942.476,204.169 935.476,204.336 928.5,205.5C 926.871,209.351 925.871,213.351 925.5,217.5C 922.833,217.5 920.167,217.5 917.5,217.5C 922.963,200.443 928.63,183.443 934.5,166.5 Z"/></g>
<g><path style="opacity:1" fill="#c7c5c4" d="M 969.5,166.5 C 972.167,166.5 974.833,166.5 977.5,166.5C 977.5,181.167 977.5,195.833 977.5,210.5C 983.833,210.5 990.167,210.5 996.5,210.5C 996.5,212.833 996.5,215.167 996.5,217.5C 987.5,217.5 978.5,217.5 969.5,217.5C 969.5,200.5 969.5,183.5 969.5,166.5 Z"/></g>
<g><path style="opacity:1" fill="#030303" d="M 829.5,172.5 C 839.442,170.504 845.942,174.171 849,183.5C 850.171,191.793 849.171,199.793 846,207.5C 841.139,211.284 835.639,212.451 829.5,211C 826.667,209.5 824.5,207.333 823,204.5C 820.676,195.333 821.01,186.333 824,177.5C 825.73,175.598 827.563,173.931 829.5,172.5 Z"/></g>
<g><path style="opacity:1" fill="#676666" d="M 588.5,166.5 C 580.5,166.5 572.5,166.5 564.5,166.5C 564.5,171.833 564.5,177.167 564.5,182.5C 563.511,177.025 563.178,171.358 563.5,165.5C 572.017,165.174 580.35,165.507 588.5,166.5 Z"/></g>
<g><path style="opacity:1" fill="#030303" d="M 572.5,172.5 C 594.815,170.721 602.648,180.721 596,202.5C 594.283,207.551 590.783,210.385 585.5,211C 581.179,211.499 576.846,211.666 572.5,211.5C 572.5,198.5 572.5,185.5 572.5,172.5 Z"/></g>
<g><path style="opacity:1" fill="#0a0a0a" d="M 731.5,196.5 C 726.695,197.487 721.695,197.821 716.5,197.5C 718.648,189.554 721.481,181.887 725,174.5C 727.678,181.699 729.845,189.032 731.5,196.5 Z"/></g>
<g><path style="opacity:1" fill="#0a0a0a" d="M 946.5,196.5 C 941.695,197.487 936.695,197.821 931.5,197.5C 933.648,189.554 936.481,181.887 940,174.5C 942.678,181.699 944.845,189.032 946.5,196.5 Z"/></g>
<g><path style="opacity:1" fill="#2b2a2a" d="M 450.5,166.5 C 450.5,173.833 450.5,181.167 450.5,188.5C 441.983,188.826 433.65,188.493 425.5,187.5C 433.5,187.5 441.5,187.5 449.5,187.5C 449.175,180.313 449.509,173.313 450.5,166.5 Z"/></g>
<g><path style="opacity:1" fill="#545353" d="M 653.5,201.5 C 653.5,189.833 653.5,178.167 653.5,166.5C 651.167,166.5 648.833,166.5 646.5,166.5C 646.828,178.678 646.495,190.678 645.5,202.5C 645.5,190.167 645.5,177.833 645.5,165.5C 648.5,165.5 651.5,165.5 654.5,165.5C 654.828,177.678 654.495,189.678 653.5,201.5 Z"/></g>
<g><path style="opacity:1" fill="#464544" d="M 328.5,159.5 C 329.495,171.655 329.829,183.989 329.5,196.5C 298.662,196.831 267.995,196.498 237.5,195.5C 267.833,195.5 298.167,195.5 328.5,195.5C 328.5,183.5 328.5,171.5 328.5,159.5 Z"/></g>
<g><path style="opacity:1" fill="#474646" d="M 905.5,166.5 C 906.568,165.566 907.901,165.232 909.5,165.5C 909.83,183.008 909.497,200.341 908.5,217.5C 908.5,200.5 908.5,183.5 908.5,166.5C 907.5,166.5 906.5,166.5 905.5,166.5 Z"/></g>
<g><path style="opacity:1" fill="#656464" d="M 731.5,196.5 C 732.043,196.56 732.376,196.893 732.5,197.5C 727.014,198.815 721.68,198.815 716.5,197.5C 721.695,197.821 726.695,197.487 731.5,196.5 Z"/></g>
<g><path style="opacity:1" fill="#656464" d="M 946.5,196.5 C 947.043,196.56 947.376,196.893 947.5,197.5C 942.014,198.815 936.68,198.815 931.5,197.5C 936.695,197.821 941.695,197.487 946.5,196.5 Z"/></g>
<g><path style="opacity:1" fill="#fefefe" d="M 178.5,218.5 C 190.5,218.5 202.5,218.5 214.5,218.5C 214.5,256.5 214.5,294.5 214.5,332.5C 202.5,332.5 190.5,332.5 178.5,332.5C 178.5,294.5 178.5,256.5 178.5,218.5 Z"/></g>
<g><path style="opacity:1" fill="#a6a5a4" d="M 273.5,218.5 C 273.5,218.833 273.5,219.167 273.5,219.5C 261.833,219.5 250.167,219.5 238.5,219.5C 238.5,257.167 238.5,294.833 238.5,332.5C 238.167,332.5 237.833,332.5 237.5,332.5C 237.5,294.5 237.5,256.5 237.5,218.5C 249.5,218.5 261.5,218.5 273.5,218.5 Z"/></g>
<g><path style="opacity:1" fill="#c1c0be" d="M 273.5,219.5 C 273.5,257.167 273.5,294.833 273.5,332.5C 261.833,332.5 250.167,332.5 238.5,332.5C 238.5,294.833 238.5,257.167 238.5,219.5C 250.167,219.5 261.833,219.5 273.5,219.5 Z"/></g>
<g><path style="opacity:1" fill="#454444" d="M 990.5,278.5 C 980.5,278.5 970.5,278.5 960.5,278.5C 960.5,289.167 960.5,299.833 960.5,310.5C 959.505,299.679 959.172,288.679 959.5,277.5C 970.014,277.172 980.347,277.506 990.5,278.5 Z"/></g>
<g><path style="opacity:1" fill="#c5c3c3" d="M 375.5,278.5 C 381.5,278.5 387.5,278.5 393.5,278.5C 393.667,293.837 393.5,309.17 393,324.5C 390.659,331.007 386.159,335.34 379.5,337.5C 377.888,336.451 376.888,334.951 376.5,333C 379.978,330.855 382.811,328.022 385,324.5C 385.5,311.171 385.667,297.837 385.5,284.5C 382.167,284.5 378.833,284.5 375.5,284.5C 375.5,282.5 375.5,280.5 375.5,278.5 Z"/></g>
<g><path style="opacity:1" fill="#c4c2c1" d="M 406.5,278.5 C 409.167,278.5 411.833,278.5 414.5,278.5C 414.333,290.838 414.5,303.171 415,315.5C 416.674,320.843 420.34,323.176 426,322.5C 431.125,323.105 434.792,321.105 437,316.5C 437.5,303.838 437.667,291.171 437.5,278.5C 440.167,278.5 442.833,278.5 445.5,278.5C 445.946,292.24 445.446,305.907 444,319.5C 441.342,325.259 436.842,328.759 430.5,330C 419.448,332.39 411.615,328.557 407,318.5C 406.5,305.171 406.333,291.837 406.5,278.5 Z"/></g>
<g><path style="opacity:1" fill="#c4c2c1" d="M 467.5,277.5 C 473.262,277.436 478.929,278.103 484.5,279.5C 484.5,282.167 484.5,284.833 484.5,287.5C 481.353,287.263 478.353,286.43 475.5,285C 469.291,282.91 465.291,284.91 463.5,291C 463.615,292.895 464.282,294.562 465.5,296C 470.341,298.921 475.341,301.588 480.5,304C 487.469,310.056 488.303,316.889 483,324.5C 474.519,331.122 465.352,332.122 455.5,327.5C 454.516,324.572 454.183,321.572 454.5,318.5C 458.929,320.709 463.595,322.376 468.5,323.5C 475.685,323.818 478.852,320.485 478,313.5C 472.747,309.12 466.914,305.62 460.5,303C 453.315,294.663 453.982,286.996 462.5,280C 464.315,279.243 465.981,278.41 467.5,277.5 Z"/></g>
<g><path style="opacity:1" fill="#c8c6c5" d="M 491.5,278.5 C 503.5,278.5 515.5,278.5 527.5,278.5C 527.5,280.5 527.5,282.5 527.5,284.5C 522.833,284.5 518.167,284.5 513.5,284.5C 513.5,299.5 513.5,314.5 513.5,329.5C 510.833,329.5 508.167,329.5 505.5,329.5C 505.5,314.5 505.5,299.5 505.5,284.5C 500.833,284.5 496.167,284.5 491.5,284.5C 491.5,282.5 491.5,280.5 491.5,278.5 Z"/></g>
<g><path style="opacity:1" fill="#c7c6c5" d="M 536.5,278.5 C 539.167,278.5 541.833,278.5 544.5,278.5C 544.5,295.5 544.5,312.5 544.5,329.5C 541.833,329.5 539.167,329.5 536.5,329.5C 536.5,312.5 536.5,295.5 536.5,278.5 Z"/></g>
<g><path style="opacity:1" fill="#c3c1c0" d="M 571.5,277.5 C 577.678,277.107 583.678,277.94 589.5,280C 590.428,280.388 591.095,281.055 591.5,282C 591.022,284.226 590.355,286.392 589.5,288.5C 582.032,283.275 574.698,283.275 567.5,288.5C 566.081,290.336 564.914,292.336 564,294.5C 562.685,302.839 563.685,310.839 567,318.5C 574.664,324.876 582.497,324.876 590.5,318.5C 591.321,321.446 591.321,324.446 590.5,327.5C 580.3,332.213 570.634,331.379 561.5,325C 556.291,318.658 553.957,311.324 554.5,303C 554.338,290.463 560.004,281.963 571.5,277.5 Z"/></g>
<g><path style="opacity:1" fill="#c7c5c4" d="M 600.5,278.5 C 610.5,278.5 620.5,278.5 630.5,278.5C 630.5,280.5 630.5,282.5 630.5,284.5C 623.167,284.5 615.833,284.5 608.5,284.5C 608.5,289.5 608.5,294.5 608.5,299.5C 614.5,299.5 620.5,299.5 626.5,299.5C 626.5,301.833 626.5,304.167 626.5,306.5C 620.5,306.5 614.5,306.5 608.5,306.5C 608.5,311.833 608.5,317.167 608.5,322.5C 615.833,322.5 623.167,322.5 630.5,322.5C 630.5,324.833 630.5,327.167 630.5,329.5C 620.5,329.5 610.5,329.5 600.5,329.5C 600.5,312.5 600.5,295.5 600.5,278.5 Z"/></g>
<g><path style="opacity:1" fill="#c8c6c5" d="M 652.5,278.5 C 655.167,278.5 657.833,278.5 660.5,278.5C 660.5,295.5 660.5,312.5 660.5,329.5C 657.833,329.5 655.167,329.5 652.5,329.5C 652.5,312.5 652.5,295.5 652.5,278.5 Z"/></g>
<g><path style="opacity:1" fill="#c7c5c4" d="M 683.5,278.5 C 691.153,290.464 698.82,302.464 706.5,314.5C 706.783,315.289 707.283,315.956 708,316.5C 708.5,303.838 708.667,291.171 708.5,278.5C 709.167,278.5 709.833,278.5 710.5,278.5C 712.167,278.5 713.833,278.5 715.5,278.5C 715.5,284.5 715.5,290.5 715.5,296.5C 715.5,307.5 715.5,318.5 715.5,329.5C 712.223,329.784 709.057,329.451 706,328.5C 698.333,316.167 690.667,303.833 683,291.5C 682.5,304.162 682.333,316.829 682.5,329.5C 680.167,329.5 677.833,329.5 675.5,329.5C 675.5,312.5 675.5,295.5 675.5,278.5C 678.167,278.5 680.833,278.5 683.5,278.5 Z"/></g>
<g><path style="opacity:1" fill="#c3c1c0" d="M 739.5,277.5 C 744.978,277.149 750.311,277.816 755.5,279.5C 756.205,282.089 756.205,284.756 755.5,287.5C 752.763,286.969 750.096,286.136 747.5,285C 740.916,282.797 736.916,284.964 735.5,291.5C 735.406,293.912 736.406,295.745 738.5,297C 744.914,299.62 750.747,303.12 756,307.5C 760.401,319.52 756.235,327.02 743.5,330C 737.54,330.761 731.873,329.761 726.5,327C 724.767,318.667 727.1,317 733.5,322C 737.097,323.277 740.764,323.61 744.5,323C 749.145,320.975 750.645,317.475 749,312.5C 743.74,308.964 738.24,305.797 732.5,303C 726.836,297.221 726.003,290.721 730,283.5C 732.843,280.837 736.009,278.837 739.5,277.5 Z"/></g>
<g><path style="opacity:1" fill="#c5c4c3" d="M 763.5,278.5 C 775.5,278.5 787.5,278.5 799.5,278.5C 799.5,280.5 799.5,282.5 799.5,284.5C 794.833,284.5 790.167,284.5 785.5,284.5C 785.5,299.5 785.5,314.5 785.5,329.5C 782.833,329.5 780.167,329.5 777.5,329.5C 777.5,314.5 777.5,299.5 777.5,284.5C 772.833,284.5 768.167,284.5 763.5,284.5C 763.5,282.5 763.5,280.5 763.5,278.5 Z"/></g>
<g><path style="opacity:1" fill="#cccbc9" d="M 815.5,329.5 C 813.167,329.5 810.833,329.5 808.5,329.5C 808.5,317.833 808.5,306.167 808.5,294.5C 808.5,289.167 808.5,283.833 808.5,278.5C 810.833,278.5 813.167,278.5 815.5,278.5C 815.5,295.5 815.5,312.5 815.5,329.5 Z"/></g>
<g><path style="opacity:1" fill="#c5c4c3" d="M 825.5,278.5 C 837.5,278.5 849.5,278.5 861.5,278.5C 861.5,280.5 861.5,282.5 861.5,284.5C 856.833,284.5 852.167,284.5 847.5,284.5C 847.5,299.5 847.5,314.5 847.5,329.5C 844.833,329.5 842.167,329.5 839.5,329.5C 839.5,314.5 839.5,299.5 839.5,284.5C 834.833,284.5 830.167,284.5 825.5,284.5C 825.5,282.5 825.5,280.5 825.5,278.5 Z"/></g>
<g><path style="opacity:1" fill="#c4c2c1" d="M 868.5,278.5 C 871.167,278.5 873.833,278.5 876.5,278.5C 876.333,290.838 876.5,303.171 877,315.5C 878.674,320.843 882.34,323.176 888,322.5C 893.125,323.105 896.792,321.105 899,316.5C 899.5,303.838 899.667,291.171 899.5,278.5C 902.167,278.5 904.833,278.5 907.5,278.5C 907.946,292.24 907.446,305.907 906,319.5C 903.342,325.259 898.842,328.759 892.5,330C 881.448,332.39 873.615,328.557 869,318.5C 868.5,305.171 868.333,291.837 868.5,278.5 Z"/></g>
<g><path style="opacity:1" fill="#c5c4c3" d="M 915.5,278.5 C 927.5,278.5 939.5,278.5 951.5,278.5C 951.5,280.5 951.5,282.5 951.5,284.5C 946.833,284.5 942.167,284.5 937.5,284.5C 937.5,299.5 937.5,314.5 937.5,329.5C 934.833,329.5 932.167,329.5 929.5,329.5C 929.5,314.5 929.5,299.5 929.5,284.5C 924.833,284.5 920.167,284.5 915.5,284.5C 915.5,282.5 915.5,280.5 915.5,278.5 Z"/></g>
<g><path style="opacity:1" fill="#c7c5c4" d="M 990.5,278.5 C 990.5,280.833 990.5,283.167 990.5,285.5C 983.167,285.5 975.833,285.5 968.5,285.5C 968.5,290.167 968.5,294.833 968.5,299.5C 973.975,300.489 979.642,300.822 985.5,300.5C 985.5,302.5 985.5,304.5 985.5,306.5C 979.5,306.5 973.5,306.5 967.5,306.5C 967.5,311.833 967.5,317.167 967.5,322.5C 975.167,322.5 982.833,322.5 990.5,322.5C 990.5,324.833 990.5,327.167 990.5,329.5C 980.5,329.5 970.5,329.5 960.5,329.5C 960.5,323.167 960.5,316.833 960.5,310.5C 960.5,299.833 960.5,289.167 960.5,278.5C 970.5,278.5 980.5,278.5 990.5,278.5 Z"/></g>
<g><path style="opacity:1" fill="#646363" d="M 815.5,329.5 C 815.5,312.5 815.5,295.5 815.5,278.5C 813.167,278.5 810.833,278.5 808.5,278.5C 808.5,283.833 808.5,289.167 808.5,294.5C 807.511,289.025 807.178,283.358 807.5,277.5C 810.5,277.5 813.5,277.5 816.5,277.5C 816.83,295.008 816.497,312.341 815.5,329.5 Z"/></g>
<g><path style="opacity:1" fill="#6f6e6d" d="M 683.5,278.5 C 680.833,278.5 678.167,278.5 675.5,278.5C 675.5,295.5 675.5,312.5 675.5,329.5C 674.503,312.341 674.17,295.008 674.5,277.5C 677.713,277.19 680.713,277.523 683.5,278.5 Z"/></g>
<g><path style="opacity:1" fill="#2b2a2a" d="M 708.5,278.5 C 708.667,291.171 708.5,303.838 708,316.5C 707.283,315.956 706.783,315.289 706.5,314.5C 707.167,302.5 707.833,290.5 708.5,278.5 Z"/></g>
<g><path style="opacity:1" fill="#333232" d="M 710.5,278.5 C 712.265,277.539 714.265,277.205 716.5,277.5C 716.823,284.022 716.49,290.355 715.5,296.5C 715.5,290.5 715.5,284.5 715.5,278.5C 713.833,278.5 712.167,278.5 710.5,278.5 Z"/></g>
<g><path style="opacity:1" fill="#6d6b6b" d="M 968.5,299.5 C 974.5,299.5 980.5,299.5 986.5,299.5C 986.802,302.059 986.468,304.393 985.5,306.5C 985.5,304.5 985.5,302.5 985.5,300.5C 979.642,300.822 973.975,300.489 968.5,299.5 Z"/></g>
<g><path style="opacity:1" fill="#636362" d="M 35.5,159.5 C 36.499,217.331 36.8324,275.331 36.5,333.5C 24.1667,333.5 11.8333,333.5 -0.5,333.5C -0.5,333.167 -0.5,332.833 -0.5,332.5C 11.5,332.5 23.5,332.5 35.5,332.5C 35.5,274.833 35.5,217.167 35.5,159.5 Z"/></g>
<g><path style="opacity:1" fill="#636362" d="M 154.5,159.5 C 155.499,217.331 155.832,275.331 155.5,333.5C 142.989,333.829 130.655,333.495 118.5,332.5C 130.5,332.5 142.5,332.5 154.5,332.5C 154.5,274.833 154.5,217.167 154.5,159.5 Z"/></g>
<g><path style="opacity:1" fill="#626261" d="M 273.5,218.5 C 274.499,256.663 274.832,294.996 274.5,333.5C 261.989,333.829 249.655,333.495 237.5,332.5C 237.833,332.5 238.167,332.5 238.5,332.5C 250.167,332.5 261.833,332.5 273.5,332.5C 273.5,294.833 273.5,257.167 273.5,219.5C 273.5,219.167 273.5,218.833 273.5,218.5 Z"/></g>
</svg>
